<svg xmlns="http://www.w3.org/2000/svg" xmlns:xlink="http://www.w3.org/1999/xlink" version="1.1" data-diagram-type="DESCRIPTION" style="width:648px;height:1265px;background:#FFFFFF;" width="648px" height="1265px" viewBox="0 0 648 1265" zoomAndPan="magnify" preserveAspectRatio="none" contentStyleType="text/css"><?plantuml 1.2026.7beta8?><defs/><g font-family="sans-serif" lengthAdjust="spacing"><g class="title" data-source-line="7"><text x="118.538" y="22.995" fill="#000" font-size="14" textLength="404.175" font-weight="700">MaiAgent AI Django — System Context (C4 Level 1)</text></g><!--entity customer--><g class="entity" data-qualified-name="customer" id="ent0001" data-source-line="380"><ellipse cx="420.253" cy="69.016" rx="25.719" ry="25.719" fill="#08427B" style="stroke:#073B6F;stroke-width:0.5;"/><rect x="314.95" y="94.735" width="210.606" height="71.219" fill="#08427B" style="stroke:#073B6F;stroke-width:0.5;" rx="25.719" ry="25.719"/><text x="380.253" y="119.586" fill="#FFF" font-size="16" font-weight="700">一</text><text x="396.253" y="119.586" fill="#FFF" font-size="16" font-weight="700">般</text><text x="412.253" y="119.586" fill="#FFF" font-size="16" font-weight="700">使</text><text x="428.253" y="119.586" fill="#FFF" font-size="16" font-weight="700">用</text><text x="444.253" y="119.586" fill="#FFF" font-size="16" font-weight="700">者</text><text x="418.028" y="136.355" fill="#FFF" font-size="14"> </text><text x="324.95" y="152.652" fill="#FFF" font-size="14">提</text><text x="338.95" y="152.652" fill="#FFF" font-size="14">交</text><text x="352.95" y="152.652" fill="#FFF" font-size="14">查</text><text x="366.95" y="152.652" fill="#FFF" font-size="14">詢</text><text x="380.95" y="152.652" fill="#FFF" font-size="14">、</text><text x="394.95" y="152.652" fill="#FFF" font-size="14">查</text><text x="408.95" y="152.652" fill="#FFF" font-size="14">看</text><text x="422.95" y="152.652" fill="#FFF" font-size="14">對</text><text x="436.95" y="152.652" fill="#FFF" font-size="14">話</text><text x="450.949" y="152.652" fill="#FFF" font-size="14">與</text><text x="464.949" y="152.652" fill="#FFF" font-size="14"> </text><text x="469.4" y="152.652" fill="#FFF" font-size="14" textLength="13.706">AI</text><text x="483.106" y="152.652" fill="#FFF" font-size="14"> </text><text x="487.556" y="152.652" fill="#FFF" font-size="14">回</text><text x="501.556" y="152.652" fill="#FFF" font-size="14">覆</text></g><!--entity cs--><g class="entity" data-qualified-name="cs" id="ent0002" data-source-line="380"><ellipse cx="311.249" cy="317.426" rx="28.469" ry="28.469" fill="#08427B" style="stroke:#073B6F;stroke-width:0.5;"/><rect x="206.25" y="345.895" width="209.998" height="87.516" fill="#08427B" style="stroke:#073B6F;stroke-width:0.5;" rx="28.469" ry="28.469"/><text x="279.249" y="370.746" fill="#FFF" font-size="16" font-weight="700">客</text><text x="295.249" y="370.746" fill="#FFF" font-size="16" font-weight="700">服</text><text x="311.249" y="370.746" fill="#FFF" font-size="16" font-weight="700">人</text><text x="327.249" y="370.746" fill="#FFF" font-size="16" font-weight="700">員</text><text x="309.024" y="387.515" fill="#FFF" font-size="14"> </text><text x="252.891" y="403.812" fill="#FFF" font-size="14">查</text><text x="266.891" y="403.812" fill="#FFF" font-size="14">看</text><text x="280.891" y="403.812" fill="#FFF" font-size="14">/</text><text x="285.607" y="403.812" fill="#FFF" font-size="14">接</text><text x="299.607" y="403.812" fill="#FFF" font-size="14">手</text><text x="313.607" y="403.812" fill="#FFF" font-size="14">客</text><text x="327.607" y="403.812" fill="#FFF" font-size="14">服</text><text x="341.607" y="403.812" fill="#FFF" font-size="14">場</text><text x="355.607" y="403.812" fill="#FFF" font-size="14">景</text><text x="216.25" y="420.108" fill="#FFF" font-size="14" textLength="133.998">(customer_service)</text><text x="350.248" y="420.108" fill="#FFF" font-size="14">下</text><text x="364.248" y="420.108" fill="#FFF" font-size="14">的</text><text x="378.248" y="420.108" fill="#FFF" font-size="14">對</text><text x="392.248" y="420.108" fill="#FFF" font-size="14">話</text></g><!--entity admin--><g class="entity" data-qualified-name="admin" id="ent0003" data-source-line="380"><ellipse cx="112.252" cy="643.451" rx="31.044" ry="31.044" fill="#08427B" style="stroke:#073B6F;stroke-width:0.5;"/><rect x="7" y="674.494" width="210.504" height="103.813" fill="#08427B" style="stroke:#073B6F;stroke-width:0.5;" rx="31.044" ry="31.044"/><text x="88.252" y="699.346" fill="#FFF" font-size="16" font-weight="700">管</text><text x="104.252" y="699.346" fill="#FFF" font-size="16" font-weight="700">理</text><text x="120.252" y="699.346" fill="#FFF" font-size="16" font-weight="700">者</text><text x="110.027" y="716.114" fill="#FFF" font-size="14"> </text><text x="17" y="732.411" fill="#FFF" font-size="14">管</text><text x="31" y="732.411" fill="#FFF" font-size="14">理</text><text x="45" y="732.411" fill="#FFF" font-size="14"> </text><text x="49.45" y="732.411" fill="#FFF" font-size="14" textLength="42.684">Scene</text><text x="92.134" y="732.411" fill="#FFF" font-size="14"> </text><text x="96.584" y="732.411" fill="#FFF" font-size="14">/</text><text x="101.301" y="732.411" fill="#FFF" font-size="14"> </text><text x="105.751" y="732.411" fill="#FFF" font-size="14" textLength="83.303">ModelRoute</text><text x="189.054" y="732.411" fill="#FFF" font-size="14"> </text><text x="193.504" y="732.411" fill="#FFF" font-size="14">設</text><text x="105.252" y="748.708" fill="#FFF" font-size="14">定</text><text x="49.252" y="765.005" fill="#FFF" font-size="14">擁</text><text x="63.252" y="765.005" fill="#FFF" font-size="14">有</text><text x="77.252" y="765.005" fill="#FFF" font-size="14">全</text><text x="91.252" y="765.005" fill="#FFF" font-size="14">部</text><text x="105.252" y="765.005" fill="#FFF" font-size="14">資</text><text x="119.252" y="765.005" fill="#FFF" font-size="14">料</text><text x="133.252" y="765.005" fill="#FFF" font-size="14">存</text><text x="147.252" y="765.005" fill="#FFF" font-size="14">取</text><text x="161.252" y="765.005" fill="#FFF" font-size="14">權</text></g><!--entity maiagent--><g class="entity" data-qualified-name="maiagent" id="ent0004" data-source-line="404"><rect x="254.85" y="867.307" width="198.805" height="87.516" fill="#1168BD" style="stroke:#3C7FC0;stroke-width:0.5;"/><text x="264.85" y="892.158" fill="#FFF" font-size="16" textLength="85.93" font-weight="700">MaiAgent</text><text x="350.78" y="892.158" fill="#FFF" font-size="16" font-weight="700"> </text><text x="356.35" y="892.158" fill="#FFF" font-size="16" textLength="18.336" font-weight="700">AI</text><text x="374.686" y="892.158" fill="#FFF" font-size="16" font-weight="700"> </text><text x="380.256" y="892.158" fill="#FFF" font-size="16" textLength="63.398" font-weight="700">Django</text><text x="352.027" y="908.927" fill="#FFF" font-size="14"> </text><text x="282.174" y="925.224" fill="#FFF" font-size="14">對</text><text x="296.174" y="925.224" fill="#FFF" font-size="14">話</text><text x="310.174" y="925.224" fill="#FFF" font-size="14">管</text><text x="324.174" y="925.224" fill="#FFF" font-size="14">理</text><text x="338.174" y="925.224" fill="#FFF" font-size="14">、</text><text x="352.174" y="925.224" fill="#FFF" font-size="14" textLength="13.706">AI</text><text x="365.88" y="925.224" fill="#FFF" font-size="14"> </text><text x="370.33" y="925.224" fill="#FFF" font-size="14">自</text><text x="384.33" y="925.224" fill="#FFF" font-size="14">動</text><text x="398.33" y="925.224" fill="#FFF" font-size="14">回</text><text x="412.33" y="925.224" fill="#FFF" font-size="14">覆</text><text x="264.91" y="941.521" fill="#FFF" font-size="14">即</text><text x="278.91" y="941.521" fill="#FFF" font-size="14">時</text><text x="292.91" y="941.521" fill="#FFF" font-size="14">推</text><text x="306.91" y="941.521" fill="#FFF" font-size="14">送</text><text x="320.91" y="941.521" fill="#FFF" font-size="14">、</text><text x="334.91" y="941.521" fill="#FFF" font-size="14" textLength="38.685">RBAC</text><text x="373.595" y="941.521" fill="#FFF" font-size="14">、</text><text x="387.595" y="941.521" fill="#FFF" font-size="14">全</text><text x="401.595" y="941.521" fill="#FFF" font-size="14">文</text><text x="415.594" y="941.521" fill="#FFF" font-size="14">檢</text><text x="429.594" y="941.521" fill="#FFF" font-size="14">索</text></g><!--entity aiProvider--><g class="entity" data-qualified-name="aiProvider" id="ent0005" data-source-line="419"><rect x="248.14" y="1043.817" width="212.219" height="87.516" fill="#999" style="stroke:#8A8A8A;stroke-width:0.5;"/><text x="269.039" y="1068.668" fill="#FFF" font-size="16" textLength="18.336" font-weight="700">AI</text><text x="287.375" y="1068.668" fill="#FFF" font-size="16" font-weight="700"> </text><text x="292.945" y="1068.668" fill="#FFF" font-size="16" textLength="54.703" font-weight="700">Model</text><text x="347.648" y="1068.668" fill="#FFF" font-size="16" font-weight="700"> </text><text x="353.218" y="1068.668" fill="#FFF" font-size="16" textLength="86.242" font-weight="700">Providers</text><text x="352.024" y="1085.437" fill="#FFF" font-size="14"> </text><text x="267.413" y="1101.734" fill="#FFF" font-size="14">透</text><text x="281.413" y="1101.734" fill="#FFF" font-size="14">過</text><text x="295.413" y="1101.734" fill="#FFF" font-size="14"> </text><text x="299.863" y="1101.734" fill="#FFF" font-size="14" textLength="94.773">litellm.Router</text><text x="394.636" y="1101.734" fill="#FFF" font-size="14"> </text><text x="399.087" y="1101.734" fill="#FFF" font-size="14">呼</text><text x="413.086" y="1101.734" fill="#FFF" font-size="14">叫</text><text x="427.086" y="1101.734" fill="#FFF" font-size="14">的</text><text x="258.14" y="1118.031" fill="#FFF" font-size="14">外</text><text x="272.14" y="1118.031" fill="#FFF" font-size="14">部</text><text x="286.14" y="1118.031" fill="#FFF" font-size="14"> </text><text x="290.59" y="1118.031" fill="#FFF" font-size="14" textLength="27.679">LLM</text><text x="318.269" y="1118.031" fill="#FFF" font-size="14"> </text><text x="322.719" y="1118.031" fill="#FFF" font-size="14">供</text><text x="336.719" y="1118.031" fill="#FFF" font-size="14">應</text><text x="350.719" y="1118.031" fill="#FFF" font-size="14">商</text><text x="364.719" y="1118.031" fill="#FFF" font-size="14">(</text><text x="370.181" y="1118.031" fill="#FFF" font-size="14">可</text><text x="384.181" y="1118.031" fill="#FFF" font-size="14">切</text><text x="398.181" y="1118.031" fill="#FFF" font-size="14">換</text><text x="412.181" y="1118.031" fill="#FFF" font-size="14">/</text><text x="416.897" y="1118.031" fill="#FFF" font-size="14">容</text><text x="430.897" y="1118.031" fill="#FFF" font-size="14">錯</text><text x="444.897" y="1118.031" fill="#FFF" font-size="14">)</text></g><!--link customer to maiagent--><g class="link" data-entity-1="ent0001" data-entity-2="ent0004" id="lnk6" data-source-line="1803" data-link-type="dependency"><path d="M478.29,166.167 C490.23,184.307 499.25,205.207 499.25,226.957 C499.25,226.957 499.25,226.957 499.25,696.357 C499.25,764.727 453.597,821.964 411.987,861.534" style="stroke:#666;stroke-width:1;" fill="none" id="customer-to-maiagent"/><polygon points="406.19,867.047,414.055,863.708,409.92,859.36,406.19,867.047" fill="#666" style="stroke:#666;stroke-width:1;stroke-linejoin:miter;stroke-miterlimit:10;"/><text x="500.25" y="475.546" fill="#666" font-size="12" font-weight="700">提</text><text x="512.25" y="475.546" fill="#666" font-size="12" font-weight="700">交</text><text x="524.25" y="475.546" fill="#666" font-size="12" font-weight="700">訊</text><text x="536.25" y="475.546" fill="#666" font-size="12" font-weight="700">息</text><text x="548.25" y="475.546" fill="#666" font-size="12" font-weight="700">、</text><text x="560.25" y="475.546" fill="#666" font-size="12" font-weight="700">查</text><text x="572.251" y="475.546" fill="#666" font-size="12" font-weight="700">詢</text><text x="584.251" y="475.546" fill="#666" font-size="12" font-weight="700">對</text><text x="596.251" y="475.546" fill="#666" font-size="12" font-weight="700">話</text><text x="608.251" y="475.546" fill="#666" font-size="12" font-weight="700">狀</text><text x="620.251" y="475.546" fill="#666" font-size="12" font-weight="700">態</text><text x="504.595" y="489.514" fill="#666" font-size="12" textLength="78.129" font-style="italic">[HTTPS/REST</text><text x="582.724" y="489.514" fill="#666" font-size="12" font-style="italic"> </text><text x="586.539" y="489.514" fill="#666" font-size="12" font-style="italic">+</text><text x="596.593" y="489.514" fill="#666" font-size="12" font-style="italic"> </text><text x="600.408" y="489.514" fill="#666" font-size="12" textLength="27.498" font-style="italic">SSE]</text></g><!--link cs to maiagent--><g class="link" data-entity-1="ent0002" data-entity-2="ent0004" id="lnk7" data-source-line="1803" data-link-type="dependency"><path d="M295.49,433.517 C288.37,469.307 280.78,513.437 277.25,553.407 C267.11,668.407 307.536,792.969 333.346,859.489" style="stroke:#666;stroke-width:1;" fill="none" id="cs-to-maiagent"/><polygon points="336.24,866.947,336.143,858.403,330.549,860.574,336.24,866.947" fill="#666" style="stroke:#666;stroke-width:1;stroke-linejoin:miter;stroke-miterlimit:10;"/><text x="291.905" y="565.546" fill="#666" font-size="12" font-weight="700">查</text><text x="303.905" y="565.546" fill="#666" font-size="12" font-weight="700">看</text><text x="315.905" y="565.546" fill="#666" font-size="12" font-weight="700">客</text><text x="327.905" y="565.546" fill="#666" font-size="12" font-weight="700">服</text><text x="339.905" y="565.546" fill="#666" font-size="12" font-weight="700">場</text><text x="351.905" y="565.546" fill="#666" font-size="12" font-weight="700">景</text><text x="363.905" y="565.546" fill="#666" font-size="12" font-weight="700">對</text><text x="375.906" y="565.546" fill="#666" font-size="12" font-weight="700">話</text><text x="278.25" y="579.514" fill="#666" font-size="12" textLength="78.129" font-style="italic">[HTTPS/REST</text><text x="356.379" y="579.514" fill="#666" font-size="12" font-style="italic"> </text><text x="360.193" y="579.514" fill="#666" font-size="12" font-style="italic">+</text><text x="370.248" y="579.514" fill="#666" font-size="12" font-style="italic"> </text><text x="374.063" y="579.514" fill="#666" font-size="12" textLength="27.498" font-style="italic">SSE]</text></g><!--link cs to maiagent--><!--link admin to maiagent--><g class="link" data-entity-1="ent0003" data-entity-2="ent0004" id="lnk8" data-source-line="1803" data-link-type="dependency"><path d="M84.99,778.687 C82.96,799.487 85.65,820.627 98.25,837.307 C117.57,862.887 183.296,880.588 246.646,892.838" style="stroke:#666;stroke-width:1;" fill="none" id="admin-to-maiagent"/><polygon points="254.5,894.357,247.215,889.893,246.076,895.783,254.5,894.357" fill="#666" style="stroke:#666;stroke-width:1;stroke-linejoin:miter;stroke-miterlimit:10;"/><text x="99.25" y="820.446" fill="#666" font-size="12" font-weight="700">管</text><text x="111.25" y="820.446" fill="#666" font-size="12" font-weight="700">理</text><text x="123.25" y="820.446" fill="#666" font-size="12" font-weight="700"> </text><text x="127.428" y="820.446" fill="#666" font-size="12" textLength="125.889" font-weight="700">Scene/ModelRoute</text><text x="106.809" y="834.414" fill="#666" font-size="12" textLength="78.129" font-style="italic">[HTTPS/REST</text><text x="184.938" y="834.414" fill="#666" font-size="12" font-style="italic"> </text><text x="188.752" y="834.414" fill="#666" font-size="12" font-style="italic">+</text><text x="198.807" y="834.414" fill="#666" font-size="12" font-style="italic"> </text><text x="202.621" y="834.414" fill="#666" font-size="12" textLength="43.137" font-style="italic">Admin]</text></g><!--link maiagent to aiProvider--><g class="link" data-entity-1="ent0004" data-entity-2="ent0005" id="lnk9" data-source-line="1803" data-link-type="dependency"><path d="M289.73,955.137 C281.03,963.887 273.35,973.817 268.25,984.817 C258.37,1006.117 264.1,1020.965 281.54,1037.835" style="stroke:#666;stroke-width:1;" fill="none" id="maiagent-to-aiProvider"/><polygon points="287.29,1043.397,283.626,1035.679,279.454,1039.991,287.29,1043.397" fill="#666" style="stroke:#666;stroke-width:1;stroke-linejoin:miter;stroke-miterlimit:10;"/><text x="293.352" y="996.956" fill="#666" font-size="12" font-weight="700">產</text><text x="305.352" y="996.956" fill="#666" font-size="12" font-weight="700">生</text><text x="317.352" y="996.956" fill="#666" font-size="12" font-weight="700"> </text><text x="321.53" y="996.956" fill="#666" font-size="12" textLength="13.752" font-weight="700">AI</text><text x="335.282" y="996.956" fill="#666" font-size="12" font-weight="700"> </text><text x="339.46" y="996.956" fill="#666" font-size="12" font-weight="700">回</text><text x="351.46" y="996.956" fill="#666" font-size="12" font-weight="700">覆</text><text x="363.46" y="996.956" fill="#666" font-size="12" font-weight="700">內</text><text x="375.46" y="996.956" fill="#666" font-size="12" font-weight="700">容</text><text x="269.25" y="1010.924" fill="#666" font-size="12" textLength="41.795" font-style="italic">[litellm</text><text x="311.045" y="1010.924" fill="#666" font-size="12" font-style="italic"> </text><text x="314.859" y="1010.924" fill="#666" font-size="12" textLength="40.307" font-style="italic">Router</text><text x="355.166" y="1010.924" fill="#666" font-size="12" font-style="italic"> </text><text x="358.98" y="1010.924" fill="#666" font-size="12" textLength="52.582" font-style="italic">(HTTPS)]</text></g><!--link maiagent to aiProvider--><!--link customer to cs--><!--link cs to admin--><g class="legend" data-source-line="299"><text x="502.189" y="1171.328" fill="#000" font-size="14" textLength="57.921" font-weight="700">Legend</text><text x="560.109" y="1171.328" fill="#FFF" font-size="14"> </text><rect x="502.189" y="1174.629" width="122.063" height="16.297" fill="#08427B" style="stroke:none;"/><text x="506.639" y="1187.624" fill="#FFF" font-size="14" textLength="47.988">person</text><rect x="502.189" y="1190.926" width="122.063" height="16.297" fill="#1168BD" style="stroke:none;"/><text x="506.639" y="1203.921" fill="#FFF" font-size="14" textLength="50.613">system</text><rect x="502.189" y="1207.223" width="122.063" height="16.297" fill="#686868" style="stroke:none;"/><text x="506.639" y="1220.218" fill="#FFF" font-size="14" textLength="110.537">external person</text><rect x="502.189" y="1223.52" width="122.063" height="16.297" fill="#999" style="stroke:none;"/><text x="506.639" y="1236.515" fill="#FFF" font-size="14" textLength="113.162">external system</text><line x1="502.189" y1="1158.333" x2="624.251" y2="1158.333" style="stroke:#FFF;stroke-width:1;"/><line x1="502.189" y1="1174.629" x2="624.251" y2="1174.629" style="stroke:#FFF;stroke-width:1;"/><line x1="502.189" y1="1190.926" x2="624.251" y2="1190.926" style="stroke:#FFF;stroke-width:1;"/><line x1="502.189" y1="1207.223" x2="624.251" y2="1207.223" style="stroke:#FFF;stroke-width:1;"/><line x1="502.189" y1="1223.52" x2="624.251" y2="1223.52" style="stroke:#FFF;stroke-width:1;"/><line x1="502.189" y1="1239.817" x2="624.251" y2="1239.817" style="stroke:#FFF;stroke-width:1;"/><line x1="502.189" y1="1158.333" x2="502.189" y2="1239.817" style="stroke:#FFF;stroke-width:1;"/><line x1="624.251" y1="1158.333" x2="624.251" y2="1239.817" style="stroke:#FFF;stroke-width:1;"/></g><?plantuml-src TLFVJzfG67tdhxZpPP1DcYK-xOq1cIRy2c3C4fEcmersASNGulIjR4D01Dn4DfLC9RgX4zYY3sXq_YzRxsrvsh-mhxGCYDjJs_FrE-Vxphdt0I_6X7GSeoLPNfQUCaoAU-LSvEMbz49QmgbOKfInA3jZoGIpB72Yd4u8av8S5_W5nZqr6JAWMR-FIN2IZ5C0iMwZOrLsBiEVDflFzI8u6sMZmH3h2Su5x8u1CZSJdMPztkVUW0V0o7HmZWrvmv5WW8MgRoRW1TGcyxA0aP_ZNOim17BD8CzBJbnCefzA5KNMG3A1B3raTqyX7rx10de2dI6SafAYFPQMv6G2fnwZ2RMhwFbpzVPEgpPr9Ji14ArigTV7zE14FstyKZBmejMBv5j9F_skvtE67Dd_f7zUdt3yvPEWZRGRj5vIhw_9zb6Vfj_7qF89BHJD8ZcyfBkT-U40B7YvmiUmG-qMjRstfiYGbuidU16ejFQHjhLkZMT-e4WCYnWno9-COo6SJCiOwSqMQU_DYtGxG-i5actstZJrYnojxPBMHrAfqVCDuBQP3jaJ7CyP_W7bVIiD8NCQKmvyW9gUEoF57NFxUP6KBkZkQrfkzfGCrCFFN6vuW2ojvUXPGxji3DLOxwfiv_XGAhd2n_l60rr_T3J094EpfrHwcJ8IU1aBGiBPtok5oBiRKlaA1e7eSGssGZwV7wa_zcckG7RMxQJI8VaShUmpf7tLs-mu3E4m5aQ27jdMp5TlRj1CnymNWhQMBIeqMpG6cOv6Gn4cx8r4qICKYNY1iKyeZLEPPsCaN2l2_pDOcOwGZ0RA3EEyn-4oEYsMOVkOgLgreLKFXaUKPB-08mQJvIYo7BNtcVi-FKHwUrlj5eXIHEQvGxJydkQtu6gG_0TIRzAwedOtQEtgzyscTRsqsxRQRK4D3YwWlSmToPQqTgjts09l8GARZrjZFRmaSs8CZ-HW60WtSRmAc6NBe3Hcz03xrzAEFm00?></g></svg>