<svg xmlns="http://www.w3.org/2000/svg" xmlns:xlink="http://www.w3.org/1999/xlink" version="1.1" data-diagram-type="SEQUENCE" style="width:1311px;height:1685px;background:#FFFFFF;" width="1311px" height="1685px" viewBox="0 0 1311 1685" zoomAndPan="magnify" preserveAspectRatio="none" contentStyleType="text/css"><?plantuml 1.2026.7beta8?><defs/><g font-family="sans-serif" lengthAdjust="spacing"><g class="title" data-source-line="1"><text x="357.14" y="27.995" fill="#000" font-size="14" textLength="594.774" font-weight="700">MaiAgent AI Django — 提交訊息 → AI 回覆 → SSE 推播 (補充圖 Dynamic Diagram)</text></g><g><title>......</title><rect x="51.5" y="123.594" width="8" height="1474.641" fill="#000" fill-opacity="0"/><line x1="55" y1="123.594" x2="55" y2="1598.234" style="stroke:#181818;stroke-width:0.5;stroke-dasharray:5,5;"/></g><g><title>Django API</title><rect x="277.412" y="123.594" width="8" height="1474.641" fill="#000" fill-opacity="0"/><line x1="280.912" y1="123.594" x2="280.912" y2="1598.234" style="stroke:#181818;stroke-width:0.5;stroke-dasharray:5,5;"/></g><g><title>PostgreSQL</title><rect x="563.511" y="123.594" width="8" height="1474.641" fill="#000" fill-opacity="0"/><line x1="567.011" y1="123.594" x2="567.011" y2="1598.234" style="stroke:#181818;stroke-width:0.5;stroke-dasharray:5,5;"/></g><g><title>Redis</title><rect x="735.938" y="123.594" width="8" height="1474.641" fill="#000" fill-opacity="0"/><line x1="739.438" y1="123.594" x2="739.438" y2="1598.234" style="stroke:#181818;stroke-width:0.5;stroke-dasharray:5,5;"/></g><g><title>Celery Worker</title><rect x="930.43" y="123.594" width="8" height="1474.641" fill="#000" fill-opacity="0"/><line x1="933.93" y1="123.594" x2="933.93" y2="1598.234" style="stroke:#181818;stroke-width:0.5;stroke-dasharray:5,5;"/></g><g><title>Realtime Consumer</title><rect x="1073.58" y="123.594" width="8" height="1474.641" fill="#000" fill-opacity="0"/><line x1="1077.08" y1="123.594" x2="1077.08" y2="1598.234" style="stroke:#181818;stroke-width:0.5;stroke-dasharray:5,5;"/></g><g><title>AI Model Provider</title><rect x="1228.136" y="123.594" width="8" height="1474.641" fill="#000" fill-opacity="0"/><line x1="1231.636" y1="123.594" x2="1231.636" y2="1598.234" style="stroke:#181818;stroke-width:0.5;stroke-dasharray:5,5;"/></g><text x="10" y="120.292" fill="#000" font-size="14" textLength="84">使用者瀏覽器</text><ellipse cx="55" cy="55.797" rx="8" ry="8" fill="#E2E2F0" style="stroke:#181818;stroke-width:0.5;"/><path d="M55,63.797 L55,90.797 M42,71.797 L68,71.797 M55,90.797 L42,105.797 M55,90.797 L68,105.797" style="stroke:#181818;stroke-width:0.5;" fill="none"/><rect x="235.826" y="76" width="90.173" height="46.594" fill="#E2E2F0" style="stroke:#181818;stroke-width:0.5;" rx="2.5" ry="2.5"/><text x="242.826" y="95.995" fill="#000" font-size="14" textLength="76.173">Django API</text><text x="260.975" y="112.292" fill="#000" font-size="14" textLength="39.874">(web)</text><text x="523.635" y="120.292" fill="#000" font-size="14" textLength="80.753">PostgreSQL</text><path d="M549.011,71.297 C549.011,61.297 567.011,61.297 567.011,61.297 C567.011,61.297 585.011,61.297 585.011,71.297 L585.011,97.297 C585.011,107.297 567.011,107.297 567.011,107.297 C567.011,107.297 549.011,107.297 549.011,97.297 L549.011,71.297" style="stroke:#181818;stroke-width:0.5;" fill="#E2E2F0"/><path d="M549.011,71.297 C549.011,81.297 567.011,81.297 567.011,81.297 C567.011,81.297 585.011,81.297 585.011,71.297" style="stroke:#181818;stroke-width:0.5;" fill="none"/><path d="M625.388,81 L853.488,81 C858.488,81 858.488,102.297 858.488,102.297 C858.488,102.297 858.488,123.594 853.488,123.594 L625.388,123.594 C620.388,123.594 620.388,102.297 620.388,102.297 C620.388,102.297 620.388,81 625.388,81" style="stroke:#181818;stroke-width:0.5;" fill="#E2E2F0"/><path d="M853.488,81 C848.488,81 848.488,102.297 848.488,102.297 C848.488,123.594 853.488,123.594 853.488,123.594" style="stroke:#181818;stroke-width:0.5;" fill="none"/><text x="715.232" y="98.995" fill="#000" font-size="14" textLength="38.411">Redis</text><text x="625.388" y="115.292" fill="#000" font-size="14" textLength="218.101">(broker / channel layer / ticket)</text><rect x="876.918" y="92.297" width="114.023" height="30.297" fill="#E2E2F0" style="stroke:#181818;stroke-width:0.5;" rx="2.5" ry="2.5"/><text x="883.918" y="112.292" fill="#000" font-size="14" textLength="100.023">Celery Worker</text><rect x="1000.941" y="76" width="152.277" height="46.594" fill="#E2E2F0" style="stroke:#181818;stroke-width:0.5;" rx="2.5" ry="2.5"/><text x="1007.941" y="95.995" fill="#000" font-size="14" textLength="138.277">Realtime Consumer</text><text x="1054.897" y="112.292" fill="#000" font-size="14" textLength="44.365">(ASGI)</text><rect x="1163.219" y="92.297" width="136.835" height="30.297" fill="#E2E2F0" style="stroke:#181818;stroke-width:0.5;" rx="2.5" ry="2.5"/><text x="1170.219" y="112.292" fill="#000" font-size="14" textLength="122.835">AI Model Provider</text><text x="10" y="1611.229" fill="#000" font-size="14" textLength="84">使用者瀏覽器</text><ellipse cx="55" cy="1623.031" rx="8" ry="8" fill="#E2E2F0" style="stroke:#181818;stroke-width:0.5;"/><path d="M55,1631.031 L55,1658.031 M42,1639.031 L68,1639.031 M55,1658.031 L42,1673.031 M55,1658.031 L68,1673.031" style="stroke:#181818;stroke-width:0.5;" fill="none"/><rect x="235.826" y="1598.234" width="90.173" height="46.594" fill="#E2E2F0" style="stroke:#181818;stroke-width:0.5;" rx="2.5" ry="2.5"/><text x="242.826" y="1618.229" fill="#000" font-size="14" textLength="76.173">Django API</text><text x="260.975" y="1634.526" fill="#000" font-size="14" textLength="39.874">(web)</text><text x="523.635" y="1611.229" fill="#000" font-size="14" textLength="80.753">PostgreSQL</text><path d="M549.011,1624.531 C549.011,1614.531 567.011,1614.531 567.011,1614.531 C567.011,1614.531 585.011,1614.531 585.011,1624.531 L585.011,1650.531 C585.011,1660.531 567.011,1660.531 567.011,1660.531 C567.011,1660.531 549.011,1660.531 549.011,1650.531 L549.011,1624.531" style="stroke:#181818;stroke-width:0.5;" fill="#E2E2F0"/><path d="M549.011,1624.531 C549.011,1634.531 567.011,1634.531 567.011,1634.531 C567.011,1634.531 585.011,1634.531 585.011,1624.531" style="stroke:#181818;stroke-width:0.5;" fill="none"/><path d="M625.388,1598.234 L853.488,1598.234 C858.488,1598.234 858.488,1619.531 858.488,1619.531 C858.488,1619.531 858.488,1640.828 853.488,1640.828 L625.388,1640.828 C620.388,1640.828 620.388,1619.531 620.388,1619.531 C620.388,1619.531 620.388,1598.234 625.388,1598.234" style="stroke:#181818;stroke-width:0.5;" fill="#E2E2F0"/><path d="M853.488,1598.234 C848.488,1598.234 848.488,1619.531 848.488,1619.531 C848.488,1640.828 853.488,1640.828 853.488,1640.828" style="stroke:#181818;stroke-width:0.5;" fill="none"/><text x="715.232" y="1616.229" fill="#000" font-size="14" textLength="38.411">Redis</text><text x="625.388" y="1632.526" fill="#000" font-size="14" textLength="218.101">(broker / channel layer / ticket)</text><rect x="876.918" y="1598.234" width="114.023" height="30.297" fill="#E2E2F0" style="stroke:#181818;stroke-width:0.5;" rx="2.5" ry="2.5"/><text x="883.918" y="1618.229" fill="#000" font-size="14" textLength="100.023">Celery Worker</text><rect x="1000.941" y="1598.234" width="152.277" height="46.594" fill="#E2E2F0" style="stroke:#181818;stroke-width:0.5;" rx="2.5" ry="2.5"/><text x="1007.941" y="1618.229" fill="#000" font-size="14" textLength="138.277">Realtime Consumer</text><text x="1054.897" y="1634.526" fill="#000" font-size="14" textLength="44.365">(ASGI)</text><rect x="1163.219" y="1598.234" width="136.835" height="30.297" fill="#E2E2F0" style="stroke:#181818;stroke-width:0.5;" rx="2.5" ry="2.5"/><text x="1170.219" y="1618.229" fill="#000" font-size="14" textLength="122.835">AI Model Provider</text><rect x="10" y="152.16" width="1290.054" height="3" fill="#EEE" style="stroke:#EEE;stroke-width:1;"/><line x1="10" y1="152.16" x2="1300.054" y2="152.16" style="stroke:#000;stroke-width:1;"/><line x1="10" y1="155.16" x2="1300.054" y2="155.16" style="stroke:#000;stroke-width:1;"/><rect x="619.764" y="141.594" width="70.526" height="23.133" fill="#EEE" style="stroke:#000;stroke-width:2;"/><text x="625.764" y="157.661" fill="#000" font-size="13" textLength="52" font-weight="700">建立對話</text><polygon points="268.912,206.992,278.912,210.992,268.912,214.992,272.912,210.992" fill="#181818" style="stroke:#181818;stroke-width:1;stroke-linejoin:miter;stroke-miterlimit:10;"/><line x1="55" y1="210.992" x2="274.912" y2="210.992" style="stroke:#181818;stroke-width:1;"/><text x="98.982" y="190.793" fill="#000" font-size="13" textLength="34.265">POST</text><text x="133.247" y="190.793" fill="#000" font-size="13"> </text><text x="137.379" y="190.793" fill="#000" font-size="13" textLength="99.55">/conversations/</text><text x="136.475" y="205.926" fill="#000" font-size="13">{</text><text x="144.746" y="205.926" fill="#000" font-size="13"> </text><text x="148.878" y="205.926" fill="#000" font-size="13" textLength="38.156">scene</text><text x="187.034" y="205.926" fill="#000" font-size="13"> </text><text x="191.166" y="205.926" fill="#000" font-size="13">}</text><polygon points="555.011,251.258,565.011,255.258,555.011,259.258,559.011,255.258" fill="#181818" style="stroke:#181818;stroke-width:1;stroke-linejoin:miter;stroke-miterlimit:10;"/><line x1="280.912" y1="255.258" x2="561.011" y2="255.258" style="stroke:#181818;stroke-width:1;"/><text x="410.962" y="235.059" fill="#000" font-size="13">建</text><text x="423.962" y="235.059" fill="#000" font-size="13">立</text><text x="334.276" y="250.192" fill="#000" font-size="13" textLength="179.372">Conversation(status=open)</text><polygon points="66,295.523,56,299.523,66,303.523,62,299.523" fill="#181818" style="stroke:#181818;stroke-width:1;stroke-linejoin:miter;stroke-miterlimit:10;"/><line x1="60" y1="299.523" x2="279.912" y2="299.523" style="stroke:#181818;stroke-width:1;stroke-dasharray:2,2;"/><text x="127.617" y="279.325" fill="#000" font-size="13" textLength="24.813">201</text><text x="152.43" y="279.325" fill="#000" font-size="13"> </text><text x="156.562" y="279.325" fill="#000" font-size="13" textLength="51.733">Created</text><text x="104.362" y="294.458" fill="#000" font-size="13">{</text><text x="112.633" y="294.458" fill="#000" font-size="13"> </text><text x="116.765" y="294.458" fill="#000" font-size="13" textLength="102.381">conversation_id</text><text x="219.147" y="294.458" fill="#000" font-size="13"> </text><text x="223.279" y="294.458" fill="#000" font-size="13">}</text><rect x="10" y="328.09" width="1290.054" height="3" fill="#EEE" style="stroke:#EEE;stroke-width:1;"/><line x1="10" y1="328.09" x2="1300.054" y2="328.09" style="stroke:#000;stroke-width:1;"/><line x1="10" y1="331.09" x2="1300.054" y2="331.09" style="stroke:#000;stroke-width:1;"/><rect x="601.435" y="317.523" width="107.184" height="23.133" fill="#EEE" style="stroke:#000;stroke-width:2;"/><text x="607.435" y="333.59" fill="#000" font-size="13" textLength="88.658" font-weight="700">建立 SSE 連線</text><polygon points="268.912,382.922,278.912,386.922,268.912,390.922,272.912,386.922" fill="#181818" style="stroke:#181818;stroke-width:1;stroke-linejoin:miter;stroke-miterlimit:10;"/><line x1="55" y1="386.922" x2="274.912" y2="386.922" style="stroke:#181818;stroke-width:1;"/><text x="154.842" y="366.723" fill="#000" font-size="13" textLength="26.229">GET</text><text x="68.241" y="381.856" fill="#000" font-size="13" textLength="199.431">/conversations/{id}/sse-ticket/</text><polygon points="727.438,412.055,737.438,416.055,727.438,420.055,731.438,416.055" fill="#181818" style="stroke:#181818;stroke-width:1;stroke-linejoin:miter;stroke-miterlimit:10;"/><line x1="280.912" y1="416.055" x2="733.438" y2="416.055" style="stroke:#181818;stroke-width:1;"/><text x="415.725" y="410.989" fill="#000" font-size="13" textLength="188.9">issue_ticket(conversation_id)</text><polygon points="291.912,441.188,281.912,445.188,291.912,449.188,287.912,445.188" fill="#181818" style="stroke:#181818;stroke-width:1;stroke-linejoin:miter;stroke-miterlimit:10;"/><line x1="285.912" y1="445.188" x2="738.438" y2="445.188" style="stroke:#181818;stroke-width:1;stroke-dasharray:2,2;"/><text x="491.935" y="440.122" fill="#000" font-size="13" textLength="36.48">ticket</text><polygon points="66,470.32,56,474.32,66,478.32,62,474.32" fill="#181818" style="stroke:#181818;stroke-width:1;stroke-linejoin:miter;stroke-miterlimit:10;"/><line x1="60" y1="474.32" x2="279.912" y2="474.32" style="stroke:#181818;stroke-width:1;stroke-dasharray:2,2;"/><text x="137.313" y="469.254" fill="#000" font-size="13">{</text><text x="145.584" y="469.254" fill="#000" font-size="13"> </text><text x="149.716" y="469.254" fill="#000" font-size="13" textLength="36.48">ticket</text><text x="186.196" y="469.254" fill="#000" font-size="13"> </text><text x="190.328" y="469.254" fill="#000" font-size="13">}</text><polygon points="1065.08,514.586,1075.08,518.586,1065.08,522.586,1069.08,518.586" fill="#181818" style="stroke:#181818;stroke-width:1;stroke-linejoin:miter;stroke-miterlimit:10;"/><line x1="55" y1="518.586" x2="1071.08" y2="518.586" style="stroke:#181818;stroke-width:1;"/><text x="552.926" y="498.387" fill="#000" font-size="13" textLength="26.229">GET</text><text x="453.575" y="513.52" fill="#000" font-size="13" textLength="224.929">/sse/conversations/{id}/?ticket=...</text><polygon points="750.438,543.719,740.438,547.719,750.438,551.719,746.438,547.719" fill="#181818" style="stroke:#181818;stroke-width:1;stroke-linejoin:miter;stroke-miterlimit:10;"/><line x1="744.438" y1="547.719" x2="1076.08" y2="547.719" style="stroke:#181818;stroke-width:1;"/><text x="833.95" y="542.653" fill="#000" font-size="13" textLength="148.618">consume_ticket(ticket)</text><polygon points="578.011,572.852,568.011,576.852,578.011,580.852,574.011,576.852" fill="#181818" style="stroke:#181818;stroke-width:1;stroke-linejoin:miter;stroke-miterlimit:10;"/><line x1="572.011" y1="576.852" x2="1076.08" y2="576.852" style="stroke:#181818;stroke-width:1;"/><text x="770.045" y="571.786" fill="#000" font-size="13">查</text><text x="783.045" y="571.786" fill="#000" font-size="13">詢</text><text x="796.045" y="571.786" fill="#000" font-size="13">初</text><text x="809.045" y="571.786" fill="#000" font-size="13">始</text><text x="822.045" y="571.786" fill="#000" font-size="13">訊</text><text x="835.045" y="571.786" fill="#000" font-size="13">息</text><text x="848.046" y="571.786" fill="#000" font-size="13">快</text><text x="861.046" y="571.786" fill="#000" font-size="13">照</text><polygon points="66,617.117,56,621.117,66,625.117,62,621.117" fill="#181818" style="stroke:#181818;stroke-width:1;stroke-linejoin:miter;stroke-miterlimit:10;"/><line x1="60" y1="621.117" x2="1076.08" y2="621.117" style="stroke:#181818;stroke-width:1;stroke-dasharray:2,2;"/><text x="491.591" y="600.918" fill="#000" font-size="13" textLength="122.897">text/event-stream(</text><text x="614.488" y="600.918" fill="#000" font-size="13">初</text><text x="627.488" y="600.918" fill="#000" font-size="13">始</text><text x="550.504" y="616.051" fill="#000" font-size="13">快</text><text x="563.504" y="616.051" fill="#000" font-size="13">照</text><text x="576.504" y="616.051" fill="#000" font-size="13">)</text><rect x="10" y="649.684" width="1290.054" height="3" fill="#EEE" style="stroke:#EEE;stroke-width:1;"/><line x1="10" y1="649.684" x2="1300.054" y2="649.684" style="stroke:#000;stroke-width:1;"/><line x1="10" y1="652.684" x2="1300.054" y2="652.684" style="stroke:#000;stroke-width:1;"/><rect x="619.764" y="639.117" width="70.526" height="23.133" fill="#EEE" style="stroke:#000;stroke-width:2;"/><text x="625.764" y="655.184" fill="#000" font-size="13" textLength="52" font-weight="700">提交訊息</text><polygon points="268.912,719.648,278.912,723.648,268.912,727.648,272.912,723.648" fill="#181818" style="stroke:#181818;stroke-width:1;stroke-linejoin:miter;stroke-miterlimit:10;"/><line x1="55" y1="723.648" x2="274.912" y2="723.648" style="stroke:#181818;stroke-width:1;"/><text x="150.824" y="688.317" fill="#000" font-size="13" textLength="34.265">POST</text><text x="67" y="703.45" fill="#000" font-size="13" textLength="201.913">/conversations/{id}/messages/</text><text x="130.667" y="718.583" fill="#000" font-size="13">{</text><text x="138.938" y="718.583" fill="#000" font-size="13"> </text><text x="143.07" y="718.583" fill="#000" font-size="13" textLength="49.772">content</text><text x="192.842" y="718.583" fill="#000" font-size="13"> </text><text x="196.974" y="718.583" fill="#000" font-size="13">}</text><line x1="280.912" y1="752.781" x2="322.912" y2="752.781" style="stroke:#181818;stroke-width:1;"/><line x1="322.912" y1="752.781" x2="322.912" y2="765.781" style="stroke:#181818;stroke-width:1;"/><line x1="281.912" y1="765.781" x2="322.912" y2="765.781" style="stroke:#181818;stroke-width:1;"/><polygon points="291.912,761.781,281.912,765.781,291.912,769.781,287.912,765.781" fill="#181818" style="stroke:#181818;stroke-width:1;stroke-linejoin:miter;stroke-miterlimit:10;"/><text x="287.912" y="747.715" fill="#000" font-size="13" textLength="272.099">conversations.services.message_submit()</text><polygon points="555.011,851.445,565.011,855.445,555.011,859.445,559.011,855.445" fill="#181818" style="stroke:#181818;stroke-width:1;stroke-linejoin:miter;stroke-miterlimit:10;"/><line x1="280.912" y1="855.445" x2="561.011" y2="855.445" style="stroke:#181818;stroke-width:1;"/><text x="344.743" y="789.848" fill="#000" font-size="13" textLength="115.305">select_for_update</text><text x="460.048" y="789.848" fill="#000" font-size="13"> </text><text x="464.18" y="789.848" fill="#000" font-size="13">檢</text><text x="477.18" y="789.848" fill="#000" font-size="13">查</text><text x="490.18" y="789.848" fill="#000" font-size="13">狀</text><text x="410.962" y="804.981" fill="#000" font-size="13">態</text><text x="423.962" y="804.981" fill="#000" font-size="13">機</text><text x="396.302" y="820.114" fill="#000" font-size="13" textLength="46.808">(closed</text><text x="443.109" y="820.114" fill="#000" font-size="13"> </text><text x="447.242" y="820.114" fill="#000" font-size="13">/</text><text x="367.36" y="835.247" fill="#000" font-size="13" textLength="104.692">pending_human</text><text x="472.052" y="835.247" fill="#000" font-size="13"> </text><text x="476.184" y="835.247" fill="#000" font-size="13">/</text><text x="364.205" y="850.379" fill="#000" font-size="13" textLength="119.514">reply_in_progress)</text><polygon points="555.011,910.844,565.011,914.844,555.011,918.844,559.011,914.844" fill="#181818" style="stroke:#181818;stroke-width:1;stroke-linejoin:miter;stroke-miterlimit:10;"/><line x1="280.912" y1="914.844" x2="561.011" y2="914.844" style="stroke:#181818;stroke-width:1;"/><text x="394.718" y="879.512" fill="#000" font-size="13">建</text><text x="407.718" y="879.512" fill="#000" font-size="13">立</text><text x="420.718" y="879.512" fill="#000" font-size="13"> </text><text x="424.85" y="879.512" fill="#000" font-size="13" textLength="28.355">user</text><text x="355.191" y="894.645" fill="#000" font-size="13" textLength="137.541">message(completed)</text><text x="347.888" y="909.778" fill="#000" font-size="13">+</text><text x="358.781" y="909.778" fill="#000" font-size="13"> </text><text x="362.913" y="909.778" fill="#000" font-size="13" textLength="11.578">ai</text><text x="374.491" y="909.778" fill="#000" font-size="13"> </text><text x="378.624" y="909.778" fill="#000" font-size="13" textLength="121.412">message(pending)</text><polygon points="921.93,939.977,931.93,943.977,921.93,947.977,925.93,943.977" fill="#181818" style="stroke:#181818;stroke-width:1;stroke-linejoin:miter;stroke-miterlimit:10;"/><line x1="280.912" y1="943.977" x2="927.93" y2="943.977" style="stroke:#181818;stroke-width:1;"/><text x="476.904" y="938.911" fill="#000" font-size="13" textLength="261.035">generate_ai_reply.delay(ai_message_id)</text><polygon points="66,999.375,56,1003.375,66,1007.375,62,1003.375" fill="#181818" style="stroke:#181818;stroke-width:1;stroke-linejoin:miter;stroke-miterlimit:10;"/><line x1="60" y1="1003.375" x2="279.912" y2="1003.375" style="stroke:#181818;stroke-width:1;stroke-dasharray:2,2;"/><text x="123.091" y="968.043" fill="#000" font-size="13" textLength="24.813">202</text><text x="147.904" y="968.043" fill="#000" font-size="13"> </text><text x="152.036" y="968.043" fill="#000" font-size="13" textLength="60.785">Accepted</text><text x="103.867" y="983.176" fill="#000" font-size="13">{</text><text x="112.138" y="983.176" fill="#000" font-size="13"> </text><text x="116.27" y="983.176" fill="#000" font-size="13" textLength="115.775">user_message_id,</text><text x="114.322" y="998.309" fill="#000" font-size="13" textLength="94.866">ai_message_id</text><text x="209.187" y="998.309" fill="#000" font-size="13"> </text><text x="213.32" y="998.309" fill="#000" font-size="13">}</text><rect x="10" y="1031.941" width="1290.054" height="3" fill="#EEE" style="stroke:#EEE;stroke-width:1;"/><line x1="10" y1="1031.941" x2="1300.054" y2="1031.941" style="stroke:#000;stroke-width:1;"/><line x1="10" y1="1034.941" x2="1300.054" y2="1034.941" style="stroke:#000;stroke-width:1;"/><rect x="588.289" y="1021.375" width="133.476" height="23.133" fill="#EEE" style="stroke:#000;stroke-width:2;"/><text x="594.289" y="1037.442" fill="#000" font-size="13" textLength="114.95" font-weight="700">非同步產生 AI 回覆</text><polygon points="578.011,1086.773,568.011,1090.773,578.011,1094.773,574.011,1090.773" fill="#181818" style="stroke:#181818;stroke-width:1;stroke-linejoin:miter;stroke-miterlimit:10;"/><line x1="572.011" y1="1090.773" x2="932.93" y2="1090.773" style="stroke:#181818;stroke-width:1;"/><text x="670.588" y="1070.575" fill="#000" font-size="13">讀</text><text x="683.588" y="1070.575" fill="#000" font-size="13">取</text><text x="696.588" y="1070.575" fill="#000" font-size="13"> </text><text x="700.721" y="1070.575" fill="#000" font-size="13" textLength="39.635">Scene</text><text x="740.355" y="1070.575" fill="#000" font-size="13"> </text><text x="744.488" y="1070.575" fill="#000" font-size="13">/</text><text x="748.868" y="1070.575" fill="#000" font-size="13"> </text><text x="753" y="1070.575" fill="#000" font-size="13" textLength="77.353">ModelRoute</text><text x="737.47" y="1085.708" fill="#000" font-size="13">設</text><text x="750.47" y="1085.708" fill="#000" font-size="13">定</text><polygon points="1219.636,1161.305,1229.636,1165.305,1219.636,1169.305,1223.636,1165.305" fill="#181818" style="stroke:#181818;stroke-width:1;stroke-linejoin:miter;stroke-miterlimit:10;"/><line x1="933.93" y1="1165.305" x2="1225.636" y2="1165.305" style="stroke:#181818;stroke-width:1;"/><text x="1008.648" y="1114.84" fill="#000" font-size="13">透</text><text x="1021.648" y="1114.84" fill="#000" font-size="13">過</text><text x="1034.648" y="1114.84" fill="#000" font-size="13"> </text><text x="1038.781" y="1114.84" fill="#000" font-size="13" textLength="88.004">litellm.Router</text><text x="1126.785" y="1114.84" fill="#000" font-size="13"> </text><text x="1130.917" y="1114.84" fill="#000" font-size="13">請</text><text x="1143.917" y="1114.84" fill="#000" font-size="13">求</text><text x="1069.783" y="1129.973" fill="#000" font-size="13">回</text><text x="1082.783" y="1129.973" fill="#000" font-size="13">覆</text><text x="1008.563" y="1145.106" fill="#000" font-size="13">(</text><text x="1013.635" y="1145.106" fill="#000" font-size="13">依</text><text x="1026.635" y="1145.106" fill="#000" font-size="13"> </text><text x="1030.767" y="1145.106" fill="#000" font-size="13" textLength="83.104">order/weight</text><text x="1113.87" y="1145.106" fill="#000" font-size="13"> </text><text x="1118.003" y="1145.106" fill="#000" font-size="13">選</text><text x="1131.003" y="1145.106" fill="#000" font-size="13">模</text><text x="1144.003" y="1145.106" fill="#000" font-size="13">，</text><text x="1047.747" y="1160.239" fill="#000" font-size="13">可</text><text x="1060.747" y="1160.239" fill="#000" font-size="13">容</text><text x="1073.747" y="1160.239" fill="#000" font-size="13">錯</text><text x="1086.747" y="1160.239" fill="#000" font-size="13">重</text><text x="1099.747" y="1160.239" fill="#000" font-size="13">試</text><text x="1112.747" y="1160.239" fill="#000" font-size="13">)</text><path d="M551.011,1177.305 L615.454,1177.305 L615.454,1184.438 L605.454,1194.438 L551.011,1194.438 L551.011,1177.305" style="stroke:#000;stroke-width:1.5;" fill="#EEE"/><rect x="551.011" y="1177.305" width="696.625" height="264.133" fill="none" style="stroke:#000;stroke-width:1.5;"/><text x="566.011" y="1190.372" fill="#000" font-size="13" textLength="19.443" font-weight="700">alt</text><text x="630.454" y="1189.515" fill="#000" font-size="11" textLength="32.055" font-weight="700">[成功]</text><line x1="551.011" y1="1303.969" x2="1247.636" y2="1303.969" style="stroke:#000;stroke-width:1;stroke-dasharray:2,2;"/><text x="556.011" y="1316.179" fill="#000" font-size="11" textLength="87.054" font-weight="700">[失敗且重試耗盡]</text><polygon points="944.93,1221.57,934.93,1225.57,944.93,1229.57,940.93,1225.57" fill="#181818" style="stroke:#181818;stroke-width:1;stroke-linejoin:miter;stroke-miterlimit:10;"/><line x1="938.93" y1="1225.57" x2="1230.636" y2="1225.57" style="stroke:#181818;stroke-width:1;stroke-dasharray:2,2;"/><text x="1056.783" y="1220.504" fill="#000" font-size="13">回</text><text x="1069.783" y="1220.504" fill="#000" font-size="13">覆</text><text x="1082.783" y="1220.504" fill="#000" font-size="13">內</text><text x="1095.783" y="1220.504" fill="#000" font-size="13">容</text><polygon points="578.011,1280.969,568.011,1284.969,578.011,1288.969,574.011,1284.969" fill="#181818" style="stroke:#181818;stroke-width:1;stroke-linejoin:miter;stroke-miterlimit:10;"/><line x1="572.011" y1="1284.969" x2="932.93" y2="1284.969" style="stroke:#181818;stroke-width:1;"/><text x="690.825" y="1249.637" fill="#000" font-size="13">更</text><text x="703.825" y="1249.637" fill="#000" font-size="13">新</text><text x="716.825" y="1249.637" fill="#000" font-size="13"> </text><text x="720.957" y="1249.637" fill="#000" font-size="13" textLength="11.578">ai</text><text x="732.535" y="1249.637" fill="#000" font-size="13"> </text><text x="736.667" y="1249.637" fill="#000" font-size="13" textLength="58.424">message</text><text x="795.091" y="1249.637" fill="#000" font-size="13"> </text><text x="799.223" y="1249.637" fill="#000" font-size="13">=</text><text x="715.983" y="1264.77" fill="#000" font-size="13" textLength="68.974">completed</text><text x="677.26" y="1279.903" fill="#000" font-size="13" textLength="58.976">(content,</text><text x="736.236" y="1279.903" fill="#000" font-size="13"> </text><text x="740.368" y="1279.903" fill="#000" font-size="13" textLength="83.313">model_used)</text><polygon points="944.93,1340.906,934.93,1344.906,944.93,1348.906,940.93,1344.906" fill="#181818" style="stroke:#181818;stroke-width:1;stroke-linejoin:miter;stroke-miterlimit:10;"/><line x1="938.93" y1="1344.906" x2="1230.636" y2="1344.906" style="stroke:#181818;stroke-width:1;stroke-dasharray:2,2;"/><text x="1069.783" y="1339.84" fill="#000" font-size="13">失</text><text x="1082.783" y="1339.84" fill="#000" font-size="13">敗</text><polygon points="578.011,1385.172,568.011,1389.172,578.011,1393.172,574.011,1389.172" fill="#181818" style="stroke:#181818;stroke-width:1;stroke-linejoin:miter;stroke-miterlimit:10;"/><line x1="572.011" y1="1389.172" x2="932.93" y2="1389.172" style="stroke:#181818;stroke-width:1;"/><text x="690.825" y="1368.973" fill="#000" font-size="13">更</text><text x="703.825" y="1368.973" fill="#000" font-size="13">新</text><text x="716.825" y="1368.973" fill="#000" font-size="13"> </text><text x="720.957" y="1368.973" fill="#000" font-size="13" textLength="11.578">ai</text><text x="732.535" y="1368.973" fill="#000" font-size="13"> </text><text x="736.667" y="1368.973" fill="#000" font-size="13" textLength="58.424">message</text><text x="795.091" y="1368.973" fill="#000" font-size="13"> </text><text x="799.223" y="1368.973" fill="#000" font-size="13">=</text><text x="678.935" y="1384.106" fill="#000" font-size="13" textLength="143.07">failed(error_message)</text><polygon points="578.011,1429.438,568.011,1433.438,578.011,1437.438,574.011,1433.438" fill="#181818" style="stroke:#181818;stroke-width:1;stroke-linejoin:miter;stroke-miterlimit:10;"/><line x1="572.011" y1="1433.438" x2="932.93" y2="1433.438" style="stroke:#181818;stroke-width:1;"/><text x="677.945" y="1413.239" fill="#000" font-size="13" textLength="130.025">Conversation.status</text><text x="807.971" y="1413.239" fill="#000" font-size="13"> </text><text x="812.103" y="1413.239" fill="#000" font-size="13">=</text><text x="698.124" y="1428.372" fill="#000" font-size="13" textLength="104.692">pending_human</text><polygon points="750.438,1502.836,740.438,1506.836,750.438,1510.836,746.438,1506.836" fill="#181818" style="stroke:#181818;stroke-width:1;stroke-linejoin:miter;stroke-miterlimit:10;"/><line x1="744.438" y1="1506.836" x2="932.93" y2="1506.836" style="stroke:#181818;stroke-width:1;"/><text x="751.438" y="1471.504" fill="#000" font-size="13" textLength="170.492">channel_layer.group_send</text><text x="758.046" y="1486.637" fill="#000" font-size="13" textLength="75.144">(conv_{id},</text><text x="833.189" y="1486.637" fill="#000" font-size="13"> </text><text x="837.322" y="1486.637" fill="#000" font-size="13">狀</text><text x="850.322" y="1486.637" fill="#000" font-size="13">態</text><text x="863.322" y="1486.637" fill="#000" font-size="13">變</text><text x="876.322" y="1486.637" fill="#000" font-size="13">化</text><text x="889.322" y="1486.637" fill="#000" font-size="13">事</text><text x="902.322" y="1486.637" fill="#000" font-size="13">件</text><text x="834.148" y="1501.77" fill="#000" font-size="13">)</text><polygon points="1065.08,1531.969,1075.08,1535.969,1065.08,1539.969,1069.08,1535.969" fill="#181818" style="stroke:#181818;stroke-width:1;stroke-linejoin:miter;stroke-miterlimit:10;"/><line x1="739.438" y1="1535.969" x2="1071.08" y2="1535.969" style="stroke:#181818;stroke-width:1;"/><text x="855.291" y="1530.903" fill="#000" font-size="13" textLength="75.804">group_send</text><text x="931.095" y="1530.903" fill="#000" font-size="13"> </text><text x="935.227" y="1530.903" fill="#000" font-size="13">轉</text><text x="948.227" y="1530.903" fill="#000" font-size="13">發</text><polygon points="66,1576.234,56,1580.234,66,1584.234,62,1580.234" fill="#181818" style="stroke:#181818;stroke-width:1;stroke-linejoin:miter;stroke-miterlimit:10;"/><line x1="60" y1="1580.234" x2="1076.08" y2="1580.234" style="stroke:#181818;stroke-width:1;stroke-dasharray:2,2;"/><text x="491.591" y="1560.036" fill="#000" font-size="13" textLength="122.897">text/event-stream(</text><text x="614.488" y="1560.036" fill="#000" font-size="13">狀</text><text x="627.488" y="1560.036" fill="#000" font-size="13">態</text><text x="537.504" y="1575.168" fill="#000" font-size="13">變</text><text x="550.504" y="1575.168" fill="#000" font-size="13">化</text><text x="563.504" y="1575.168" fill="#000" font-size="13">事</text><text x="576.504" y="1575.168" fill="#000" font-size="13">件</text><text x="589.504" y="1575.168" fill="#000" font-size="13">)</text><?plantuml-src ZLLTJnj757tVNt75aws23NdeGoItCX15IA1INAalIAjXTsAcx8SxCqkWA9A9v3J5DA284YM4e904J14GfAfDIMZ-I-HThv_w5tftPstMYIl5JnxTS-yzz-FSbKnQ5AO8AvQf8w4u0UC_4AVimeVg5WGRcysBbs5ZBLWzWm_t7aPcV-TPU70lVfLADo1uq0WUda0cVF7KhzNyfzimlkmGcnampaYP4pkhQMA1EHM2_q7G7ptg67IA2a7Aj6YniWC69gOyXRB9KW8eiPyeZ7mvd3AEkalJn3IPKuQHOKqZXdGv33GltxUs6c6rrgfkX0UN_kF60101OnR3u1fwIcQm2i4A1vBwYjCJiqxcDftBnaXyQYQHP8u82WFJhf1bJalVJiR6yL4DUNjecA4c4-Wtnzq5oY4FnZnn76g1HPRZD-PPe5B5ZC6zoSUeHVaoVEzoT8z1wcylQeOIIpARmfZh2C-c73CMIpSdL5XiUoySfpBbcaXYchkBp4m2JqvEQLgX0FxRYzPntN_zQtXq3eM2fde2Grz5DSDrcFwcz1ta3TTPf5mGoJ1bVjPP0O5peN17Yr087Xz5h8eLqUg2Cq8IwOc2Mw5ELe4HdIIv3jU6Hs2CKoAf6GLDfz6PYU6lACRxrAw-QFtrf1_FcpS-eRd2p3jv8UYGwdg-mpLkFBem8JogAsFcezHPJQ66kWaKxjCILX9BHFQAL4Gs8OKC-X7xMhaLShcS5g5Jn0mrrmwrP6awgBZLmTwhy6ZVlx_h7zQL0lttnwtQeGAb-Kcw9FDq4Hz3GcAhxOpoKlXitE4U9N_c4iH5s4g8QYNGBYEtxb8evnwtdA1yaHbKv19NNNXpDfEPRCyc2HI28VLRBjUz2WgFGl3xFjRSgbU3MZqusiELDonNK1D5XQiL2LwVzspYu9lJYhMiCqUlS1TbAaIstvPwo0GI4ZXzks9HtCBihFC54DOr9B6x4PGUCGhUGygHc4wO7YVCeSJ8SWQVdSgYBUgpyTUWQ1YqagnyH2FbCGWz0H85j7UV-PlhmSchrjP-QsilTMXnM0cbJddXQTNVs8PIhC-yalwCws4BmyQ9V_eaXSSRW0xjwaPxzG5OJ5BBidCnbaDuN0_ExweisEpcFxlWSZmU-TkKbUSbj5VV18td_xvRzpVE_DE_s-jdxP_nXXpWGk5rWk3-fh-sfm7-eYn3wTQfe7xj4FrYn4SL13j_1DklKrE00dG750rUxTaWs55jEdOG6qqjlCp-o_FWjqVDDrkAIrXzrDfv_ZyaOkZdfhz5c4ND3ENSxKuhsyyvVVjowlQXUy-6QlZGKbFegbvzA_JuMv4hSzUhw0Angk95FHBS82W5XATh_lfsywBUVFjdzrHrhiwLAuINlxGUl_kSez0dxdy0?></g></svg>