<svg xmlns="http://www.w3.org/2000/svg" xmlns:xlink="http://www.w3.org/1999/xlink" version="1.1" data-diagram-type="SEQUENCE" style="width:1311px;height:1509px;background:#FFFFFF;" width="1311px" height="1509px" viewBox="0 0 1311 1509" zoomAndPan="magnify" preserveAspectRatio="none" contentStyleType="text/css"><?plantuml 1.2026.7beta8?><defs/><g font-family="sans-serif" lengthAdjust="spacing"><g class="title" data-source-line="1"><text x="357.14" y="27.995" fill="#000" font-size="14" textLength="594.774" font-weight="700">MaiAgent AI Django — 提交訊息 → AI 回覆 → SSE 推播 (補充圖 Dynamic Diagram)</text></g><g><title>......</title><rect x="51.5" y="123.594" width="8" height="1298.711" fill="#000" fill-opacity="0"/><line x1="55" y1="123.594" x2="55" y2="1422.305" style="stroke:#181818;stroke-width:0.5;stroke-dasharray:5,5;"/></g><g><title>Django API</title><rect x="277.412" y="123.594" width="8" height="1298.711" fill="#000" fill-opacity="0"/><line x1="280.912" y1="123.594" x2="280.912" y2="1422.305" style="stroke:#181818;stroke-width:0.5;stroke-dasharray:5,5;"/></g><g><title>PostgreSQL</title><rect x="563.511" y="123.594" width="8" height="1298.711" fill="#000" fill-opacity="0"/><line x1="567.011" y1="123.594" x2="567.011" y2="1422.305" style="stroke:#181818;stroke-width:0.5;stroke-dasharray:5,5;"/></g><g><title>Redis</title><rect x="735.938" y="123.594" width="8" height="1298.711" fill="#000" fill-opacity="0"/><line x1="739.438" y1="123.594" x2="739.438" y2="1422.305" style="stroke:#181818;stroke-width:0.5;stroke-dasharray:5,5;"/></g><g><title>Celery Worker</title><rect x="930.43" y="123.594" width="8" height="1298.711" fill="#000" fill-opacity="0"/><line x1="933.93" y1="123.594" x2="933.93" y2="1422.305" style="stroke:#181818;stroke-width:0.5;stroke-dasharray:5,5;"/></g><g><title>Realtime Consumer</title><rect x="1073.58" y="123.594" width="8" height="1298.711" fill="#000" fill-opacity="0"/><line x1="1077.08" y1="123.594" x2="1077.08" y2="1422.305" style="stroke:#181818;stroke-width:0.5;stroke-dasharray:5,5;"/></g><g><title>AI Model Provider</title><rect x="1228.136" y="123.594" width="8" height="1298.711" fill="#000" fill-opacity="0"/><line x1="1231.636" y1="123.594" x2="1231.636" y2="1422.305" style="stroke:#181818;stroke-width:0.5;stroke-dasharray:5,5;"/></g><text x="10" y="120.292" fill="#000" font-size="14" textLength="84">使用者瀏覽器</text><ellipse cx="55" cy="55.797" rx="8" ry="8" fill="#E2E2F0" style="stroke:#181818;stroke-width:0.5;"/><path d="M55,63.797 L55,90.797 M42,71.797 L68,71.797 M55,90.797 L42,105.797 M55,90.797 L68,105.797" style="stroke:#181818;stroke-width:0.5;" fill="none"/><rect x="235.826" y="76" width="90.173" height="46.594" fill="#E2E2F0" style="stroke:#181818;stroke-width:0.5;" rx="2.5" ry="2.5"/><text x="242.826" y="95.995" fill="#000" font-size="14" textLength="76.173">Django API</text><text x="260.975" y="112.292" fill="#000" font-size="14" textLength="39.874">(web)</text><text x="523.635" y="120.292" fill="#000" font-size="14" textLength="80.753">PostgreSQL</text><path d="M549.011,71.297 C549.011,61.297 567.011,61.297 567.011,61.297 C567.011,61.297 585.011,61.297 585.011,71.297 L585.011,97.297 C585.011,107.297 567.011,107.297 567.011,107.297 C567.011,107.297 549.011,107.297 549.011,97.297 L549.011,71.297" style="stroke:#181818;stroke-width:0.5;" fill="#E2E2F0"/><path d="M549.011,71.297 C549.011,81.297 567.011,81.297 567.011,81.297 C567.011,81.297 585.011,81.297 585.011,71.297" style="stroke:#181818;stroke-width:0.5;" fill="none"/><path d="M625.388,81 L853.488,81 C858.488,81 858.488,102.297 858.488,102.297 C858.488,102.297 858.488,123.594 853.488,123.594 L625.388,123.594 C620.388,123.594 620.388,102.297 620.388,102.297 C620.388,102.297 620.388,81 625.388,81" style="stroke:#181818;stroke-width:0.5;" fill="#E2E2F0"/><path d="M853.488,81 C848.488,81 848.488,102.297 848.488,102.297 C848.488,123.594 853.488,123.594 853.488,123.594" style="stroke:#181818;stroke-width:0.5;" fill="none"/><text x="715.232" y="98.995" fill="#000" font-size="14" textLength="38.411">Redis</text><text x="625.388" y="115.292" fill="#000" font-size="14" textLength="218.101">(broker / channel layer / ticket)</text><rect x="876.918" y="92.297" width="114.023" height="30.297" fill="#E2E2F0" style="stroke:#181818;stroke-width:0.5;" rx="2.5" ry="2.5"/><text x="883.918" y="112.292" fill="#000" font-size="14" textLength="100.023">Celery Worker</text><rect x="1000.941" y="76" width="152.277" height="46.594" fill="#E2E2F0" style="stroke:#181818;stroke-width:0.5;" rx="2.5" ry="2.5"/><text x="1007.941" y="95.995" fill="#000" font-size="14" textLength="138.277">Realtime Consumer</text><text x="1054.897" y="112.292" fill="#000" font-size="14" textLength="44.365">(ASGI)</text><rect x="1163.219" y="92.297" width="136.835" height="30.297" fill="#E2E2F0" style="stroke:#181818;stroke-width:0.5;" rx="2.5" ry="2.5"/><text x="1170.219" y="112.292" fill="#000" font-size="14" textLength="122.835">AI Model Provider</text><text x="10" y="1435.3" fill="#000" font-size="14" textLength="84">使用者瀏覽器</text><ellipse cx="55" cy="1447.102" rx="8" ry="8" fill="#E2E2F0" style="stroke:#181818;stroke-width:0.5;"/><path d="M55,1455.102 L55,1482.102 M42,1463.102 L68,1463.102 M55,1482.102 L42,1497.102 M55,1482.102 L68,1497.102" style="stroke:#181818;stroke-width:0.5;" fill="none"/><rect x="235.826" y="1422.305" width="90.173" height="46.594" fill="#E2E2F0" style="stroke:#181818;stroke-width:0.5;" rx="2.5" ry="2.5"/><text x="242.826" y="1442.3" fill="#000" font-size="14" textLength="76.173">Django API</text><text x="260.975" y="1458.597" fill="#000" font-size="14" textLength="39.874">(web)</text><text x="523.635" y="1435.3" fill="#000" font-size="14" textLength="80.753">PostgreSQL</text><path d="M549.011,1448.602 C549.011,1438.602 567.011,1438.602 567.011,1438.602 C567.011,1438.602 585.011,1438.602 585.011,1448.602 L585.011,1474.602 C585.011,1484.602 567.011,1484.602 567.011,1484.602 C567.011,1484.602 549.011,1484.602 549.011,1474.602 L549.011,1448.602" style="stroke:#181818;stroke-width:0.5;" fill="#E2E2F0"/><path d="M549.011,1448.602 C549.011,1458.602 567.011,1458.602 567.011,1458.602 C567.011,1458.602 585.011,1458.602 585.011,1448.602" style="stroke:#181818;stroke-width:0.5;" fill="none"/><path d="M625.388,1422.305 L853.488,1422.305 C858.488,1422.305 858.488,1443.602 858.488,1443.602 C858.488,1443.602 858.488,1464.898 853.488,1464.898 L625.388,1464.898 C620.388,1464.898 620.388,1443.602 620.388,1443.602 C620.388,1443.602 620.388,1422.305 625.388,1422.305" style="stroke:#181818;stroke-width:0.5;" fill="#E2E2F0"/><path d="M853.488,1422.305 C848.488,1422.305 848.488,1443.602 848.488,1443.602 C848.488,1464.898 853.488,1464.898 853.488,1464.898" style="stroke:#181818;stroke-width:0.5;" fill="none"/><text x="715.232" y="1440.3" fill="#000" font-size="14" textLength="38.411">Redis</text><text x="625.388" y="1456.597" fill="#000" font-size="14" textLength="218.101">(broker / channel layer / ticket)</text><rect x="876.918" y="1422.305" width="114.023" height="30.297" fill="#E2E2F0" style="stroke:#181818;stroke-width:0.5;" rx="2.5" ry="2.5"/><text x="883.918" y="1442.3" fill="#000" font-size="14" textLength="100.023">Celery Worker</text><rect x="1000.941" y="1422.305" width="152.277" height="46.594" fill="#E2E2F0" style="stroke:#181818;stroke-width:0.5;" rx="2.5" ry="2.5"/><text x="1007.941" y="1442.3" fill="#000" font-size="14" textLength="138.277">Realtime Consumer</text><text x="1054.897" y="1458.597" fill="#000" font-size="14" textLength="44.365">(ASGI)</text><rect x="1163.219" y="1422.305" width="136.835" height="30.297" fill="#E2E2F0" style="stroke:#181818;stroke-width:0.5;" rx="2.5" ry="2.5"/><text x="1170.219" y="1442.3" fill="#000" font-size="14" textLength="122.835">AI Model Provider</text><rect x="10" y="152.16" width="1290.054" height="3" fill="#EEE" style="stroke:#EEE;stroke-width:1;"/><line x1="10" y1="152.16" x2="1300.054" y2="152.16" style="stroke:#000;stroke-width:1;"/><line x1="10" y1="155.16" x2="1300.054" y2="155.16" style="stroke:#000;stroke-width:1;"/><rect x="601.435" y="141.594" width="107.184" height="23.133" fill="#EEE" style="stroke:#000;stroke-width:2;"/><text x="607.435" y="157.661" fill="#000" font-size="13" textLength="88.658" font-weight="700">建立 SSE 連線</text><polygon points="268.912,206.992,278.912,210.992,268.912,214.992,272.912,210.992" fill="#181818" style="stroke:#181818;stroke-width:1;stroke-linejoin:miter;stroke-miterlimit:10;"/><line x1="55" y1="210.992" x2="274.912" y2="210.992" style="stroke:#181818;stroke-width:1;"/><text x="154.842" y="190.793" fill="#000" font-size="13" textLength="26.229">GET</text><text x="68.241" y="205.926" fill="#000" font-size="13" textLength="199.431">/conversations/{id}/sse-ticket/</text><polygon points="727.438,236.125,737.438,240.125,727.438,244.125,731.438,240.125" fill="#181818" style="stroke:#181818;stroke-width:1;stroke-linejoin:miter;stroke-miterlimit:10;"/><line x1="280.912" y1="240.125" x2="733.438" y2="240.125" style="stroke:#181818;stroke-width:1;"/><text x="415.725" y="235.059" fill="#000" font-size="13" textLength="188.9">issue_ticket(conversation_id)</text><polygon points="291.912,265.258,281.912,269.258,291.912,273.258,287.912,269.258" fill="#181818" style="stroke:#181818;stroke-width:1;stroke-linejoin:miter;stroke-miterlimit:10;"/><line x1="285.912" y1="269.258" x2="738.438" y2="269.258" style="stroke:#181818;stroke-width:1;stroke-dasharray:2,2;"/><text x="491.935" y="264.192" fill="#000" font-size="13" textLength="36.48">ticket</text><polygon points="66,294.391,56,298.391,66,302.391,62,298.391" fill="#181818" style="stroke:#181818;stroke-width:1;stroke-linejoin:miter;stroke-miterlimit:10;"/><line x1="60" y1="298.391" x2="279.912" y2="298.391" style="stroke:#181818;stroke-width:1;stroke-dasharray:2,2;"/><text x="137.313" y="293.325" fill="#000" font-size="13">{</text><text x="145.584" y="293.325" fill="#000" font-size="13"> </text><text x="149.716" y="293.325" fill="#000" font-size="13" textLength="36.48">ticket</text><text x="186.196" y="293.325" fill="#000" font-size="13"> </text><text x="190.328" y="293.325" fill="#000" font-size="13">}</text><polygon points="1065.08,338.656,1075.08,342.656,1065.08,346.656,1069.08,342.656" fill="#181818" style="stroke:#181818;stroke-width:1;stroke-linejoin:miter;stroke-miterlimit:10;"/><line x1="55" y1="342.656" x2="1071.08" y2="342.656" style="stroke:#181818;stroke-width:1;"/><text x="552.926" y="322.458" fill="#000" font-size="13" textLength="26.229">GET</text><text x="453.575" y="337.59" fill="#000" font-size="13" textLength="224.929">/sse/conversations/{id}/?ticket=...</text><polygon points="750.438,367.789,740.438,371.789,750.438,375.789,746.438,371.789" fill="#181818" style="stroke:#181818;stroke-width:1;stroke-linejoin:miter;stroke-miterlimit:10;"/><line x1="744.438" y1="371.789" x2="1076.08" y2="371.789" style="stroke:#181818;stroke-width:1;"/><text x="833.95" y="366.723" fill="#000" font-size="13" textLength="148.618">consume_ticket(ticket)</text><polygon points="578.011,396.922,568.011,400.922,578.011,404.922,574.011,400.922" fill="#181818" style="stroke:#181818;stroke-width:1;stroke-linejoin:miter;stroke-miterlimit:10;"/><line x1="572.011" y1="400.922" x2="1076.08" y2="400.922" style="stroke:#181818;stroke-width:1;"/><text x="770.045" y="395.856" fill="#000" font-size="13">查</text><text x="783.045" y="395.856" fill="#000" font-size="13">詢</text><text x="796.045" y="395.856" fill="#000" font-size="13">初</text><text x="809.045" y="395.856" fill="#000" font-size="13">始</text><text x="822.045" y="395.856" fill="#000" font-size="13">訊</text><text x="835.045" y="395.856" fill="#000" font-size="13">息</text><text x="848.046" y="395.856" fill="#000" font-size="13">快</text><text x="861.046" y="395.856" fill="#000" font-size="13">照</text><polygon points="66,441.188,56,445.188,66,449.188,62,445.188" fill="#181818" style="stroke:#181818;stroke-width:1;stroke-linejoin:miter;stroke-miterlimit:10;"/><line x1="60" y1="445.188" x2="1076.08" y2="445.188" style="stroke:#181818;stroke-width:1;stroke-dasharray:2,2;"/><text x="491.591" y="424.989" fill="#000" font-size="13" textLength="122.897">text/event-stream(</text><text x="614.488" y="424.989" fill="#000" font-size="13">初</text><text x="627.488" y="424.989" fill="#000" font-size="13">始</text><text x="550.504" y="440.122" fill="#000" font-size="13">快</text><text x="563.504" y="440.122" fill="#000" font-size="13">照</text><text x="576.504" y="440.122" fill="#000" font-size="13">)</text><rect x="10" y="473.754" width="1290.054" height="3" fill="#EEE" style="stroke:#EEE;stroke-width:1;"/><line x1="10" y1="473.754" x2="1300.054" y2="473.754" style="stroke:#000;stroke-width:1;"/><line x1="10" y1="476.754" x2="1300.054" y2="476.754" style="stroke:#000;stroke-width:1;"/><rect x="619.764" y="463.188" width="70.526" height="23.133" fill="#EEE" style="stroke:#000;stroke-width:2;"/><text x="625.764" y="479.254" fill="#000" font-size="13" textLength="52" font-weight="700">提交訊息</text><polygon points="268.912,543.719,278.912,547.719,268.912,551.719,272.912,547.719" fill="#181818" style="stroke:#181818;stroke-width:1;stroke-linejoin:miter;stroke-miterlimit:10;"/><line x1="55" y1="547.719" x2="274.912" y2="547.719" style="stroke:#181818;stroke-width:1;"/><text x="150.824" y="512.387" fill="#000" font-size="13" textLength="34.265">POST</text><text x="67" y="527.52" fill="#000" font-size="13" textLength="201.913">/conversations/{id}/messages/</text><text x="130.667" y="542.653" fill="#000" font-size="13">{</text><text x="138.938" y="542.653" fill="#000" font-size="13"> </text><text x="143.07" y="542.653" fill="#000" font-size="13" textLength="49.772">content</text><text x="192.842" y="542.653" fill="#000" font-size="13"> </text><text x="196.974" y="542.653" fill="#000" font-size="13">}</text><line x1="280.912" y1="576.852" x2="322.912" y2="576.852" style="stroke:#181818;stroke-width:1;"/><line x1="322.912" y1="576.852" x2="322.912" y2="589.852" style="stroke:#181818;stroke-width:1;"/><line x1="281.912" y1="589.852" x2="322.912" y2="589.852" style="stroke:#181818;stroke-width:1;"/><polygon points="291.912,585.852,281.912,589.852,291.912,593.852,287.912,589.852" fill="#181818" style="stroke:#181818;stroke-width:1;stroke-linejoin:miter;stroke-miterlimit:10;"/><text x="287.912" y="571.786" fill="#000" font-size="13" textLength="272.099">conversations.services.message_submit()</text><polygon points="555.011,675.516,565.011,679.516,555.011,683.516,559.011,679.516" fill="#181818" style="stroke:#181818;stroke-width:1;stroke-linejoin:miter;stroke-miterlimit:10;"/><line x1="280.912" y1="679.516" x2="561.011" y2="679.516" style="stroke:#181818;stroke-width:1;"/><text x="344.743" y="613.918" fill="#000" font-size="13" textLength="115.305">select_for_update</text><text x="460.048" y="613.918" fill="#000" font-size="13"> </text><text x="464.18" y="613.918" fill="#000" font-size="13">檢</text><text x="477.18" y="613.918" fill="#000" font-size="13">查</text><text x="490.18" y="613.918" fill="#000" font-size="13">狀</text><text x="410.962" y="629.051" fill="#000" font-size="13">態</text><text x="423.962" y="629.051" fill="#000" font-size="13">機</text><text x="396.302" y="644.184" fill="#000" font-size="13" textLength="46.808">(closed</text><text x="443.109" y="644.184" fill="#000" font-size="13"> </text><text x="447.242" y="644.184" fill="#000" font-size="13">/</text><text x="367.36" y="659.317" fill="#000" font-size="13" textLength="104.692">pending_human</text><text x="472.052" y="659.317" fill="#000" font-size="13"> </text><text x="476.184" y="659.317" fill="#000" font-size="13">/</text><text x="364.205" y="674.45" fill="#000" font-size="13" textLength="119.514">reply_in_progress)</text><polygon points="555.011,734.914,565.011,738.914,555.011,742.914,559.011,738.914" fill="#181818" style="stroke:#181818;stroke-width:1;stroke-linejoin:miter;stroke-miterlimit:10;"/><line x1="280.912" y1="738.914" x2="561.011" y2="738.914" style="stroke:#181818;stroke-width:1;"/><text x="394.718" y="703.583" fill="#000" font-size="13">建</text><text x="407.718" y="703.583" fill="#000" font-size="13">立</text><text x="420.718" y="703.583" fill="#000" font-size="13"> </text><text x="424.85" y="703.583" fill="#000" font-size="13" textLength="28.355">user</text><text x="355.191" y="718.715" fill="#000" font-size="13" textLength="137.541">message(completed)</text><text x="347.888" y="733.848" fill="#000" font-size="13">+</text><text x="358.781" y="733.848" fill="#000" font-size="13"> </text><text x="362.913" y="733.848" fill="#000" font-size="13" textLength="11.578">ai</text><text x="374.491" y="733.848" fill="#000" font-size="13"> </text><text x="378.624" y="733.848" fill="#000" font-size="13" textLength="121.412">message(pending)</text><polygon points="921.93,764.047,931.93,768.047,921.93,772.047,925.93,768.047" fill="#181818" style="stroke:#181818;stroke-width:1;stroke-linejoin:miter;stroke-miterlimit:10;"/><line x1="280.912" y1="768.047" x2="927.93" y2="768.047" style="stroke:#181818;stroke-width:1;"/><text x="476.904" y="762.981" fill="#000" font-size="13" textLength="261.035">generate_ai_reply.delay(ai_message_id)</text><polygon points="66,823.445,56,827.445,66,831.445,62,827.445" fill="#181818" style="stroke:#181818;stroke-width:1;stroke-linejoin:miter;stroke-miterlimit:10;"/><line x1="60" y1="827.445" x2="279.912" y2="827.445" style="stroke:#181818;stroke-width:1;stroke-dasharray:2,2;"/><text x="123.091" y="792.114" fill="#000" font-size="13" textLength="24.813">202</text><text x="147.904" y="792.114" fill="#000" font-size="13"> </text><text x="152.036" y="792.114" fill="#000" font-size="13" textLength="60.785">Accepted</text><text x="103.867" y="807.247" fill="#000" font-size="13">{</text><text x="112.138" y="807.247" fill="#000" font-size="13"> </text><text x="116.27" y="807.247" fill="#000" font-size="13" textLength="115.775">user_message_id,</text><text x="114.322" y="822.379" fill="#000" font-size="13" textLength="94.866">ai_message_id</text><text x="209.187" y="822.379" fill="#000" font-size="13"> </text><text x="213.32" y="822.379" fill="#000" font-size="13">}</text><rect x="10" y="856.012" width="1290.054" height="3" fill="#EEE" style="stroke:#EEE;stroke-width:1;"/><line x1="10" y1="856.012" x2="1300.054" y2="856.012" style="stroke:#000;stroke-width:1;"/><line x1="10" y1="859.012" x2="1300.054" y2="859.012" style="stroke:#000;stroke-width:1;"/><rect x="588.289" y="845.445" width="133.476" height="23.133" fill="#EEE" style="stroke:#000;stroke-width:2;"/><text x="594.289" y="861.512" fill="#000" font-size="13" textLength="114.95" font-weight="700">非同步產生 AI 回覆</text><polygon points="578.011,910.844,568.011,914.844,578.011,918.844,574.011,914.844" fill="#181818" style="stroke:#181818;stroke-width:1;stroke-linejoin:miter;stroke-miterlimit:10;"/><line x1="572.011" y1="914.844" x2="932.93" y2="914.844" style="stroke:#181818;stroke-width:1;"/><text x="670.588" y="894.645" fill="#000" font-size="13">讀</text><text x="683.588" y="894.645" fill="#000" font-size="13">取</text><text x="696.588" y="894.645" fill="#000" font-size="13"> </text><text x="700.721" y="894.645" fill="#000" font-size="13" textLength="39.635">Scene</text><text x="740.355" y="894.645" fill="#000" font-size="13"> </text><text x="744.488" y="894.645" fill="#000" font-size="13">/</text><text x="748.868" y="894.645" fill="#000" font-size="13"> </text><text x="753" y="894.645" fill="#000" font-size="13" textLength="77.353">ModelRoute</text><text x="737.47" y="909.778" fill="#000" font-size="13">設</text><text x="750.47" y="909.778" fill="#000" font-size="13">定</text><polygon points="1219.636,985.375,1229.636,989.375,1219.636,993.375,1223.636,989.375" fill="#181818" style="stroke:#181818;stroke-width:1;stroke-linejoin:miter;stroke-miterlimit:10;"/><line x1="933.93" y1="989.375" x2="1225.636" y2="989.375" style="stroke:#181818;stroke-width:1;"/><text x="1008.648" y="938.911" fill="#000" font-size="13">透</text><text x="1021.648" y="938.911" fill="#000" font-size="13">過</text><text x="1034.648" y="938.911" fill="#000" font-size="13"> </text><text x="1038.781" y="938.911" fill="#000" font-size="13" textLength="88.004">litellm.Router</text><text x="1126.785" y="938.911" fill="#000" font-size="13"> </text><text x="1130.917" y="938.911" fill="#000" font-size="13">請</text><text x="1143.917" y="938.911" fill="#000" font-size="13">求</text><text x="1069.783" y="954.043" fill="#000" font-size="13">回</text><text x="1082.783" y="954.043" fill="#000" font-size="13">覆</text><text x="1008.563" y="969.176" fill="#000" font-size="13">(</text><text x="1013.635" y="969.176" fill="#000" font-size="13">依</text><text x="1026.635" y="969.176" fill="#000" font-size="13"> </text><text x="1030.767" y="969.176" fill="#000" font-size="13" textLength="83.104">order/weight</text><text x="1113.87" y="969.176" fill="#000" font-size="13"> </text><text x="1118.003" y="969.176" fill="#000" font-size="13">選</text><text x="1131.003" y="969.176" fill="#000" font-size="13">模</text><text x="1144.003" y="969.176" fill="#000" font-size="13">，</text><text x="1047.747" y="984.309" fill="#000" font-size="13">可</text><text x="1060.747" y="984.309" fill="#000" font-size="13">容</text><text x="1073.747" y="984.309" fill="#000" font-size="13">錯</text><text x="1086.747" y="984.309" fill="#000" font-size="13">重</text><text x="1099.747" y="984.309" fill="#000" font-size="13">試</text><text x="1112.747" y="984.309" fill="#000" font-size="13">)</text><path d="M551.011,1001.375 L615.454,1001.375 L615.454,1008.508 L605.454,1018.508 L551.011,1018.508 L551.011,1001.375" style="stroke:#000;stroke-width:1.5;" fill="#EEE"/><rect x="551.011" y="1001.375" width="696.625" height="264.133" fill="none" style="stroke:#000;stroke-width:1.5;"/><text x="566.011" y="1014.442" fill="#000" font-size="13" textLength="19.443" font-weight="700">alt</text><text x="630.454" y="1013.585" fill="#000" font-size="11" textLength="32.055" font-weight="700">[成功]</text><line x1="551.011" y1="1128.039" x2="1247.636" y2="1128.039" style="stroke:#000;stroke-width:1;stroke-dasharray:2,2;"/><text x="556.011" y="1140.25" fill="#000" font-size="11" textLength="87.054" font-weight="700">[失敗且重試耗盡]</text><polygon points="944.93,1045.641,934.93,1049.641,944.93,1053.641,940.93,1049.641" fill="#181818" style="stroke:#181818;stroke-width:1;stroke-linejoin:miter;stroke-miterlimit:10;"/><line x1="938.93" y1="1049.641" x2="1230.636" y2="1049.641" style="stroke:#181818;stroke-width:1;stroke-dasharray:2,2;"/><text x="1056.783" y="1044.575" fill="#000" font-size="13">回</text><text x="1069.783" y="1044.575" fill="#000" font-size="13">覆</text><text x="1082.783" y="1044.575" fill="#000" font-size="13">內</text><text x="1095.783" y="1044.575" fill="#000" font-size="13">容</text><polygon points="578.011,1105.039,568.011,1109.039,578.011,1113.039,574.011,1109.039" fill="#181818" style="stroke:#181818;stroke-width:1;stroke-linejoin:miter;stroke-miterlimit:10;"/><line x1="572.011" y1="1109.039" x2="932.93" y2="1109.039" style="stroke:#181818;stroke-width:1;"/><text x="690.825" y="1073.708" fill="#000" font-size="13">更</text><text x="703.825" y="1073.708" fill="#000" font-size="13">新</text><text x="716.825" y="1073.708" fill="#000" font-size="13"> </text><text x="720.957" y="1073.708" fill="#000" font-size="13" textLength="11.578">ai</text><text x="732.535" y="1073.708" fill="#000" font-size="13"> </text><text x="736.667" y="1073.708" fill="#000" font-size="13" textLength="58.424">message</text><text x="795.091" y="1073.708" fill="#000" font-size="13"> </text><text x="799.223" y="1073.708" fill="#000" font-size="13">=</text><text x="715.983" y="1088.84" fill="#000" font-size="13" textLength="68.974">completed</text><text x="677.26" y="1103.973" fill="#000" font-size="13" textLength="58.976">(content,</text><text x="736.236" y="1103.973" fill="#000" font-size="13"> </text><text x="740.368" y="1103.973" fill="#000" font-size="13" textLength="83.313">model_used)</text><polygon points="944.93,1164.977,934.93,1168.977,944.93,1172.977,940.93,1168.977" fill="#181818" style="stroke:#181818;stroke-width:1;stroke-linejoin:miter;stroke-miterlimit:10;"/><line x1="938.93" y1="1168.977" x2="1230.636" y2="1168.977" style="stroke:#181818;stroke-width:1;stroke-dasharray:2,2;"/><text x="1069.783" y="1163.911" fill="#000" font-size="13">失</text><text x="1082.783" y="1163.911" fill="#000" font-size="13">敗</text><polygon points="578.011,1209.242,568.011,1213.242,578.011,1217.242,574.011,1213.242" fill="#181818" style="stroke:#181818;stroke-width:1;stroke-linejoin:miter;stroke-miterlimit:10;"/><line x1="572.011" y1="1213.242" x2="932.93" y2="1213.242" style="stroke:#181818;stroke-width:1;"/><text x="690.825" y="1193.043" fill="#000" font-size="13">更</text><text x="703.825" y="1193.043" fill="#000" font-size="13">新</text><text x="716.825" y="1193.043" fill="#000" font-size="13"> </text><text x="720.957" y="1193.043" fill="#000" font-size="13" textLength="11.578">ai</text><text x="732.535" y="1193.043" fill="#000" font-size="13"> </text><text x="736.667" y="1193.043" fill="#000" font-size="13" textLength="58.424">message</text><text x="795.091" y="1193.043" fill="#000" font-size="13"> </text><text x="799.223" y="1193.043" fill="#000" font-size="13">=</text><text x="678.935" y="1208.176" fill="#000" font-size="13" textLength="143.07">failed(error_message)</text><polygon points="578.011,1253.508,568.011,1257.508,578.011,1261.508,574.011,1257.508" fill="#181818" style="stroke:#181818;stroke-width:1;stroke-linejoin:miter;stroke-miterlimit:10;"/><line x1="572.011" y1="1257.508" x2="932.93" y2="1257.508" style="stroke:#181818;stroke-width:1;"/><text x="677.945" y="1237.309" fill="#000" font-size="13" textLength="130.025">Conversation.status</text><text x="807.971" y="1237.309" fill="#000" font-size="13"> </text><text x="812.103" y="1237.309" fill="#000" font-size="13">=</text><text x="698.124" y="1252.442" fill="#000" font-size="13" textLength="104.692">pending_human</text><polygon points="750.438,1326.906,740.438,1330.906,750.438,1334.906,746.438,1330.906" fill="#181818" style="stroke:#181818;stroke-width:1;stroke-linejoin:miter;stroke-miterlimit:10;"/><line x1="744.438" y1="1330.906" x2="932.93" y2="1330.906" style="stroke:#181818;stroke-width:1;"/><text x="751.438" y="1295.575" fill="#000" font-size="13" textLength="170.492">channel_layer.group_send</text><text x="758.046" y="1310.708" fill="#000" font-size="13" textLength="75.144">(conv_{id},</text><text x="833.189" y="1310.708" fill="#000" font-size="13"> </text><text x="837.322" y="1310.708" fill="#000" font-size="13">狀</text><text x="850.322" y="1310.708" fill="#000" font-size="13">態</text><text x="863.322" y="1310.708" fill="#000" font-size="13">變</text><text x="876.322" y="1310.708" fill="#000" font-size="13">化</text><text x="889.322" y="1310.708" fill="#000" font-size="13">事</text><text x="902.322" y="1310.708" fill="#000" font-size="13">件</text><text x="834.148" y="1325.84" fill="#000" font-size="13">)</text><polygon points="1065.08,1356.039,1075.08,1360.039,1065.08,1364.039,1069.08,1360.039" fill="#181818" style="stroke:#181818;stroke-width:1;stroke-linejoin:miter;stroke-miterlimit:10;"/><line x1="739.438" y1="1360.039" x2="1071.08" y2="1360.039" style="stroke:#181818;stroke-width:1;"/><text x="855.291" y="1354.973" fill="#000" font-size="13" textLength="75.804">group_send</text><text x="931.095" y="1354.973" fill="#000" font-size="13"> </text><text x="935.227" y="1354.973" fill="#000" font-size="13">轉</text><text x="948.227" y="1354.973" fill="#000" font-size="13">發</text><polygon points="66,1400.305,56,1404.305,66,1408.305,62,1404.305" fill="#181818" style="stroke:#181818;stroke-width:1;stroke-linejoin:miter;stroke-miterlimit:10;"/><line x1="60" y1="1404.305" x2="1076.08" y2="1404.305" style="stroke:#181818;stroke-width:1;stroke-dasharray:2,2;"/><text x="491.591" y="1384.106" fill="#000" font-size="13" textLength="122.897">text/event-stream(</text><text x="614.488" y="1384.106" fill="#000" font-size="13">狀</text><text x="627.488" y="1384.106" fill="#000" font-size="13">態</text><text x="537.504" y="1399.239" fill="#000" font-size="13">變</text><text x="550.504" y="1399.239" fill="#000" font-size="13">化</text><text x="563.504" y="1399.239" fill="#000" font-size="13">事</text><text x="576.504" y="1399.239" fill="#000" font-size="13">件</text><text x="589.504" y="1399.239" fill="#000" font-size="13">)</text><?plantuml-src ZLHDJnjN5DtFhxXYPQjWaoowYEHM1g882LGNL-e6QVGOtvXNviDzRuP04PAfv3J5DA284YM4e904J17GI5MRaj3ybyWp7g_w5tfdtjWPjrIAL_Dypxdtt4-NkoR2DEF5Ajek52TXuXjcLnruNz-6O7EhVV4YRAq7Q-Vm_kw3oEplFWqFxyQlSlac1FTRmODJo8JFd_YDXlza1oQMRMPn0oOugmfcPJLDBd2xnkWR97xheMtWD4h9gbWqUTK6WmAZIA4ijfG0olmxX6kVZgQCOyvIYLKgtAx2jL5DOuRh21XgNxxhRBV2UgDJtmmFB_r7hI5W4iPDJiurOhhSu3L66Gub-HLBaxDsvWxEPMCaFRKASzaSamX39KUwLO7bBwTYuyIOHhezCinWXKlYpGbd0GNamPXdjeqcc6mvVbES1NILpnWy67mSJHJByBKZY1w3rESWQWQPwN8BOTonfMUXe8Z5ygr9vPRAFWYdhamx5H9H4iuYhoIEfwQcDQrG0F_DHUUa6JUhMt_U-UCn50gQAWoCV1Ob3ZVWrisl86yuzY8AoLnEOVChlBAQbn97L4fvBK8I8SwAA5nA3tLbpAIfEgzaDOKQwGTGEEM3_apYtu2Ln0AhMafK93OHHGgk4lQveXLokPmMeLF235MqdhIa8ptKn1X1WlsNuV61Vs_FFsggyVRVdNGQHmgKrkVYafl7HNgCI5SWipAAfV3PkC83Qt95SKjVbA-khgMcNEPdxPL8jXlHLdk5LkG1MawYMEG6obn2rQKtPt4ta-sHulGaJPdXwhSTeNirccg4u9S3ohdJh0UDPd2yJ_Dac8x42ari3Urec_Hvps8slGNMp6MTstfDEBG3KWxwJiR98oMGYA3kMpKJNQnaP-rFWF6-8V7Tzw26dRpGiK51mdJ6zJXWZkQNBMVesSiicgB_ZClrqUjGD0oiKR2eQ96C56CO1Xn4GqNzwUuzzRSsWjENdUs3plP-wefHin99lVJ2ixg_kGDbEaf8nOZtQiRng8HXwzG_Uvp2qu8HeLlVxAxT1vExQ9fMBiOA24-QmQllLHGgTlklFN04RMR-3lBgl0lTjTT1wzdVRpVypNF_xC_knddtXv_2uqCQA5fz2Evj-Ulx6j0lYZAIBfrowZUEY1SZ_fL1iFjRiFDhgWjGW7w3eiQhEHi6AyfDfmfIeT6ai-U_U1Ny_B3zUbjf2UiFExlF_aT43FtOyBSPDx6IGI6SVhUoLv77KyEUaovpFKdqWGdLwA6bkj3VUdM8zVWGvwh2yMgw9ApAU56F5cuOr0Q4P-l-naxxejb-ytl_LFMkpWSgX9S_TXwz_PYZS8NVVm00?></g></svg>